<svg id="Layer_1" data-name="Layer 1" xmlns="http://www.w3.org/2000/svg" viewBox="0 0 500.93 341.27"><polygon points="75 0 98.18 49.38 150 57.3 112.5 95.73 121.35 150 75 124.38 28.65 150 37.5 95.73 0 57.3 51.82 49.38 75 0" fill="#fff"/><circle cx="251" cy="75" r="75" fill="#fff"/><circle cx="425.93" cy="75" r="75" fill="#fff"/><rect x="25" y="176.35" width="100" height="50" fill="#fff"/><rect x="175.93" y="176.35" width="325" height="50" fill="#fff"/><path d="M6.36,319.62Q.46,314,.46,304.1V272.41H14.61V304q0,4.33,2.08,6.65a7.68,7.68,0,0,0,6,2.31,7.72,7.72,0,0,0,6-2.31q2.13-2.31,2.13-6.65v-31.6H45V304.1Q45,314,39,319.62t-16.32,5.61Q12.25,325.23,6.36,319.62Z" fill="#fff"/><path d="M97,276.75q4.57,5.28,4.58,14.05v33.49H87.43V292.22A8.72,8.72,0,0,0,85.31,286a7.91,7.91,0,0,0-6-2.22A7.61,7.61,0,0,0,73.47,286a8.83,8.83,0,0,0-2.08,6.27v32.07H57.25V272.41H70.92v9.9h.29a12.77,12.77,0,0,1,4.52-8,14.2,14.2,0,0,1,9.15-2.87A15.25,15.25,0,0,1,97,276.75Z" fill="#fff"/><path d="M160.43,324.29H114.22V311.46h17.92V285.14H116.57V272.41h28.77v39h15.09Zm-23.11-59a7.19,7.19,0,0,1-5.14-1.84,6.91,6.91,0,0,1,0-9.58,7.3,7.3,0,0,1,5.14-1.79h1.89a7.28,7.28,0,0,1,5.14,1.79,6.93,6.93,0,0,1,0,9.62,7.37,7.37,0,0,1-5.23,1.8Z" fill="#fff"/><path d="M200.9,272.41h13.68v68.86H200.43V327.12l.47-12.74h-.47a12.11,12.11,0,0,1-4.25,8,13.9,13.9,0,0,1-9.05,2.83,15.69,15.69,0,0,1-12.55-5.52q-4.71-5.52-4.71-14.76v-13.2q0-9.24,4.71-14.76a15.69,15.69,0,0,1,12.55-5.52,13.9,13.9,0,0,1,9.05,2.83,12.11,12.11,0,0,1,4.25,8h.47Zm-2.64,38.34a8.59,8.59,0,0,0,2.17-6.27V292.22a8.61,8.61,0,0,0-2.17-6.27,9.38,9.38,0,0,0-12.12,0,8.68,8.68,0,0,0-2.13,6.27v12.26a8.66,8.66,0,0,0,2.13,6.27,9.38,9.38,0,0,0,12.12,0Z" fill="#fff"/><path d="M267,277q4.71,5.5,4.71,14.76V305q0,9.26-4.71,14.76a15.69,15.69,0,0,1-12.55,5.52,14.1,14.1,0,0,1-9.1-2.83,12.38,12.38,0,0,1-4.39-8h-.28l.47,12.74v14.15H227V272.41H240.7v9.9H241a12.38,12.38,0,0,1,4.39-8,14.1,14.1,0,0,1,9.1-2.83A15.69,15.69,0,0,1,267,277Zm-9.44,15.23a8.67,8.67,0,0,0-2.12-6.27,9.38,9.38,0,0,0-12.12,0,8.61,8.61,0,0,0-2.17,6.27v12.26a8.59,8.59,0,0,0,2.17,6.27,9.38,9.38,0,0,0,12.12,0,8.66,8.66,0,0,0,2.12-6.27Z" fill="#fff"/><path d="M322.38,276.14q5.56,4.67,5.57,13.25v34.9H314.27V315.8H314a11.18,11.18,0,0,1-5.14,6.93,18.26,18.26,0,0,1-9.86,2.5q-7.83,0-12.4-4.24T282,309.48q0-7.83,5.43-12t15.61-4.19H313.8v-3.87q0-6.6-7.73-6.6a9.45,9.45,0,0,0-5.57,1.46,6.53,6.53,0,0,0-2.64,4.2H284.18A17.31,17.31,0,0,1,291,276q6-4.57,15.42-4.57Q316.82,271.47,322.38,276.14Zm-11.17,36.55a7.24,7.24,0,0,0,2.59-5.85v-5.57H303.33a7.28,7.28,0,0,0-5.23,1.84,6.41,6.41,0,0,0-1.94,4.86,6.26,6.26,0,0,0,2.17,5,8.94,8.94,0,0,0,5.94,1.84A10.5,10.5,0,0,0,311.21,312.69Z" fill="#fff"/><path d="M380,276.75q4.57,5.28,4.57,14.05v33.49H370.39V292.22a8.67,8.67,0,0,0-2.12-6.27,7.88,7.88,0,0,0-6-2.22,7.63,7.63,0,0,0-5.85,2.22,8.83,8.83,0,0,0-2.07,6.27v32.07H340.21V272.41h13.68v9.9h.28a12.82,12.82,0,0,1,4.53-8,14.2,14.2,0,0,1,9.15-2.87A15.25,15.25,0,0,1,380,276.75Z" fill="#fff"/><path d="M441.51,301.65H409.73v2.83q0,9.9,9.43,9.9a10.87,10.87,0,0,0,5.33-1.13,5.49,5.49,0,0,0,2.68-3.11H441a18.34,18.34,0,0,1-7.69,10.94A24.6,24.6,0,0,1,419,325.23a26.39,26.39,0,0,1-12-2.59,18.9,18.9,0,0,1-7.92-7.26,20.87,20.87,0,0,1-2.78-10.9V292.22a20.87,20.87,0,0,1,2.78-10.9,18.9,18.9,0,0,1,7.92-7.26,26.39,26.39,0,0,1,12-2.59,25.8,25.8,0,0,1,11.88,2.59,19,19,0,0,1,7.88,7.26,21,21,0,0,1,2.78,10.9Zm-31.78-8,18.29-.18V292q0-9.9-9-9.9-4.62,0-6.93,2.59c-1.55,1.73-2.31,4.23-2.31,7.5Z" fill="#fff"/><path d="M484,324.29q-8.31,0-13.35-5.05t-5.05-13.34V268.17h-16V255.43h30.18V305.9a5.34,5.34,0,0,0,5.66,5.65h15.09v12.74Z" fill="#fff"/></svg>