<?xml version="1.0" encoding="UTF-8" standalone="no"?>
<svg
   xmlns:dc="http://purl.org/dc/elements/1.1/"
   xmlns:cc="http://creativecommons.org/ns#"
   xmlns:rdf="http://www.w3.org/1999/02/22-rdf-syntax-ns#"
   xmlns:svg="http://www.w3.org/2000/svg"
   xmlns="http://www.w3.org/2000/svg"
   xmlns:sodipodi="http://sodipodi.sourceforge.net/DTD/sodipodi-0.dtd"
   xmlns:inkscape="http://www.inkscape.org/namespaces/inkscape"
   id="Layer_1"
   data-name="Layer 1"
   viewBox="0 0 500 500"
   version="1.1"
   sodipodi:docname="uniqpanel-logo-readme.svg"
   inkscape:version="1.0.1 (3bc2e813f5, 2020-09-07, custom)">
  <metadata
     id="metadata118">
    <rdf:RDF>
      <cc:Work
         rdf:about="">
        <dc:format>image/svg+xml</dc:format>
        <dc:type
           rdf:resource="http://purl.org/dc/dcmitype/StillImage" />
        <dc:title></dc:title>
      </cc:Work>
    </rdf:RDF>
  </metadata>
  <defs
     id="defs116" />
  <sodipodi:namedview
     pagecolor="#ffffff"
     bordercolor="#666666"
     borderopacity="1"
     objecttolerance="10"
     gridtolerance="10"
     guidetolerance="10"
     inkscape:pageopacity="0"
     inkscape:pageshadow="2"
     inkscape:window-width="3796"
     inkscape:window-height="1033"
     id="namedview114"
     showgrid="false"
     inkscape:zoom="1.664"
     inkscape:cx="154.14663"
     inkscape:cy="201.92308"
     inkscape:window-x="20"
     inkscape:window-y="1103"
     inkscape:window-maximized="0"
     inkscape:current-layer="Layer_1" />
  <rect
     width="500"
     height="500"
     fill="#0d1117"
     id="rect83" />
  <g
     id="g134"
     transform="matrix(0.70534668,0,0,0.70534668,73.335346,129.61848)">
    <polygon
       points="121.35,150 75,124.38 28.65,150 37.5,95.73 0,57.3 51.82,49.38 75,0 98.18,49.38 150,57.3 112.5,95.73 "
       fill="#ffffff"
       id="polygon85" />
    <circle
       cx="251"
       cy="75"
       r="75"
       fill="#ffffff"
       id="circle87" />
    <circle
       cx="425.92999"
       cy="75"
       r="75"
       fill="#ffffff"
       id="circle89" />
    <rect
       x="25"
       y="176.35001"
       width="100"
       height="50"
       fill="#ffffff"
       id="rect91" />
    <rect
       x="175.92999"
       y="176.35001"
       width="325"
       height="50"
       fill="#ffffff"
       id="rect93" />
    <path
       d="M 6.36,319.62 Q 0.46,314 0.46,304.1 V 272.41 H 14.61 V 304 q 0,4.33 2.08,6.65 a 7.68,7.68 0 0 0 6,2.31 7.72,7.72 0 0 0 6,-2.31 q 2.13,-2.31 2.13,-6.65 V 272.4 H 45 v 31.7 q 0,9.9 -6,15.52 -6,5.62 -16.32,5.61 -10.43,0 -16.32,-5.61 z"
       fill="#ffffff"
       id="path95" />
    <path
       d="m 97,276.75 q 4.57,5.28 4.58,14.05 v 33.49 H 87.43 v -32.07 a 8.72,8.72 0 0 0 -2.12,-6.22 7.91,7.91 0 0 0 -6,-2.22 7.61,7.61 0 0 0 -5.84,2.22 8.83,8.83 0 0 0 -2.08,6.27 v 32.07 H 57.25 v -51.93 h 13.67 v 9.9 h 0.29 a 12.77,12.77 0 0 1 4.52,-8 14.2,14.2 0 0 1 9.15,-2.87 15.25,15.25 0 0 1 12.12,5.31 z"
       fill="#ffffff"
       id="path97" />
    <path
       d="m 160.43,324.29 h -46.21 v -12.83 h 17.92 v -26.32 h -15.57 v -12.73 h 28.77 v 39 h 15.09 z m -23.11,-59 a 7.19,7.19 0 0 1 -5.14,-1.84 6.91,6.91 0 0 1 0,-9.58 7.3,7.3 0 0 1 5.14,-1.79 h 1.89 a 7.28,7.28 0 0 1 5.14,1.79 6.93,6.93 0 0 1 0,9.62 7.37,7.37 0 0 1 -5.23,1.8 z"
       fill="#ffffff"
       id="path99" />
    <path
       d="m 200.9,272.41 h 13.68 v 68.86 h -14.15 v -14.15 l 0.47,-12.74 h -0.47 a 12.11,12.11 0 0 1 -4.25,8 13.9,13.9 0 0 1 -9.05,2.83 15.69,15.69 0 0 1 -12.55,-5.52 q -4.71,-5.52 -4.71,-14.76 v -13.2 q 0,-9.24 4.71,-14.76 a 15.69,15.69 0 0 1 12.55,-5.52 13.9,13.9 0 0 1 9.05,2.83 12.11,12.11 0 0 1 4.25,8 h 0.47 z m -2.64,38.34 a 8.59,8.59 0 0 0 2.17,-6.27 v -12.26 a 8.61,8.61 0 0 0 -2.17,-6.27 9.38,9.38 0 0 0 -12.12,0 8.68,8.68 0 0 0 -2.13,6.27 v 12.26 a 8.66,8.66 0 0 0 2.13,6.27 9.38,9.38 0 0 0 12.12,0 z"
       fill="#ffffff"
       id="path101" />
    <path
       d="m 267,277 q 4.71,5.5 4.71,14.76 V 305 q 0,9.26 -4.71,14.76 a 15.69,15.69 0 0 1 -12.55,5.52 14.1,14.1 0 0 1 -9.1,-2.83 12.38,12.38 0 0 1 -4.39,-8 h -0.28 l 0.47,12.74 v 14.15 H 227 v -68.93 h 13.7 v 9.9 h 0.3 a 12.38,12.38 0 0 1 4.39,-8 14.1,14.1 0 0 1 9.1,-2.83 A 15.69,15.69 0 0 1 267,277 Z m -9.44,15.23 a 8.67,8.67 0 0 0 -2.12,-6.27 9.38,9.38 0 0 0 -12.12,0 8.61,8.61 0 0 0 -2.17,6.27 v 12.26 a 8.59,8.59 0 0 0 2.17,6.27 9.38,9.38 0 0 0 12.12,0 8.66,8.66 0 0 0 2.12,-6.27 z"
       fill="#ffffff"
       id="path103" />
    <path
       d="m 322.38,276.14 q 5.56,4.67 5.57,13.25 v 34.9 H 314.27 V 315.8 H 314 a 11.18,11.18 0 0 1 -5.14,6.93 18.26,18.26 0 0 1 -9.86,2.5 q -7.83,0 -12.4,-4.24 -4.57,-4.24 -4.6,-11.51 0,-7.83 5.43,-12 5.43,-4.17 15.61,-4.19 h 10.76 v -3.87 q 0,-6.6 -7.73,-6.6 a 9.45,9.45 0 0 0 -5.57,1.46 6.53,6.53 0 0 0 -2.64,4.2 H 284.18 A 17.31,17.31 0 0 1 291,276 q 6,-4.57 15.42,-4.57 10.4,0.04 15.96,4.71 z m -11.17,36.55 a 7.24,7.24 0 0 0 2.59,-5.85 v -5.57 h -10.47 a 7.28,7.28 0 0 0 -5.23,1.84 6.41,6.41 0 0 0 -1.94,4.86 6.26,6.26 0 0 0 2.17,5 8.94,8.94 0 0 0 5.94,1.84 10.5,10.5 0 0 0 6.94,-2.12 z"
       fill="#ffffff"
       id="path105" />
    <path
       d="m 380,276.75 q 4.57,5.28 4.57,14.05 v 33.49 h -14.18 v -32.07 a 8.67,8.67 0 0 0 -2.12,-6.27 7.88,7.88 0 0 0 -6,-2.22 7.63,7.63 0 0 0 -5.85,2.22 8.83,8.83 0 0 0 -2.07,6.27 v 32.07 h -14.14 v -51.88 h 13.68 v 9.9 h 0.28 a 12.82,12.82 0 0 1 4.53,-8 14.2,14.2 0 0 1 9.15,-2.87 15.25,15.25 0 0 1 12.15,5.31 z"
       fill="#ffffff"
       id="path107" />
    <path
       d="m 441.51,301.65 h -31.78 v 2.83 q 0,9.9 9.43,9.9 a 10.87,10.87 0 0 0 5.33,-1.13 5.49,5.49 0 0 0 2.68,-3.11 H 441 a 18.34,18.34 0 0 1 -7.69,10.94 24.6,24.6 0 0 1 -14.31,4.15 26.39,26.39 0 0 1 -12,-2.59 18.9,18.9 0 0 1 -7.92,-7.26 20.87,20.87 0 0 1 -2.78,-10.9 v -12.26 a 20.87,20.87 0 0 1 2.78,-10.9 18.9,18.9 0 0 1 7.92,-7.26 26.39,26.39 0 0 1 12,-2.59 25.8,25.8 0 0 1 11.88,2.59 19,19 0 0 1 7.88,7.26 21,21 0 0 1 2.78,10.9 z m -31.78,-8 18.29,-0.18 V 292 q 0,-9.9 -9,-9.9 -4.62,0 -6.93,2.59 c -1.55,1.73 -2.31,4.23 -2.31,7.5 z"
       fill="#ffffff"
       id="path109" />
    <path
       d="m 484,324.29 q -8.31,0 -13.35,-5.05 -5.04,-5.05 -5.05,-13.34 v -37.73 h -16 v -12.74 h 30.18 v 50.47 a 5.34,5.34 0 0 0 5.66,5.65 h 15.09 v 12.74 z"
       fill="#ffffff"
       id="path111" />
  </g>
</svg>
